<?xml version="1.0" encoding="UTF-8" standalone="no"?>
<!-- Created with Inkscape (http://www.inkscape.org/) -->

<svg
   version="1.1"
   id="svg4692"
   xml:space="preserve"
   width="682.66669"
   height="682.66669"
   viewBox="0 0 682.66669 682.66669"
   xmlns="http://www.w3.org/2000/svg"
   xmlns:svg="http://www.w3.org/2000/svg"><defs
     id="defs4696"><clipPath
       clipPathUnits="userSpaceOnUse"
       id="clipPath4706"><path
         d="M 0,512 H 512 V 0 H 0 Z"
         id="path4704" /></clipPath></defs><g
     id="g4698"
     transform="matrix(1.3333333,0,0,-1.3333333,0,682.66667)"><g
       id="g4700"><g
         id="g4702"
         clip-path="url(#clipPath4706)"><g
           id="g4708"
           transform="translate(486.0596,365.7197)"><path
             d="m 0,0 -104.584,104.583 c -24.587,24.588 -64.45,24.588 -89.037,0 L -386.124,-87.919 -348.57,-243.987 -192.503,-281.541 0,-89.038 C 24.587,-64.451 24.587,-24.587 0,0"
             style="fill:#ffa0ab;fill-opacity:1;fill-rule:nonzero;stroke:none"
             id="path4710" /></g><g
           id="g4712"
           transform="translate(427.3408,424.4385)"><path
             d="m 0,0 -45.865,45.864 c -24.587,24.587 -64.45,24.587 -89.037,0 l -192.503,-192.502 21.149,-87.893 C -265.779,-109.306 -131.099,-5.793 0,0"
             style="fill:#ff8997;fill-opacity:1;fill-rule:nonzero;stroke:none"
             id="path4714" /></g><g
           id="g4716"
           transform="translate(99.9355,277.8008)"><path
             d="m 0,0 -73.995,-73.996 c -24.587,-24.587 -24.587,-64.45 0,-89.037 l 65.242,-65.243 c 9.928,-9.928 22.933,-16.191 36.885,-17.764 l 71.946,-8.113 c 18.747,-2.115 37.436,4.424 50.776,17.764 l 42.767,42.767 z"
             style="fill:#81ddfd;fill-opacity:1;fill-rule:nonzero;stroke:none"
             id="path4718" /></g><g
           id="g4720"
           transform="translate(286.502,236.3242)"><path
             d="m 0,0 c 11.821,-11.821 9.37,-33.438 -5.474,-48.281 -14.844,-14.845 -36.461,-17.295 -48.282,-5.474 -11.821,11.82 -9.37,33.438 5.474,48.281 C -33.438,9.371 -11.821,11.821 0,0"
             style="fill:#ffffff;fill-opacity:1;fill-rule:nonzero;stroke:none"
             id="path4722" /></g><g
           id="g4724"
           transform="translate(378.4326,328.2559)"><path
             d="M 0,0 C 11.821,-11.821 33.438,-9.371 48.282,5.474 63.127,20.317 65.577,41.935 53.756,53.756 41.935,65.576 20.318,63.126 5.474,48.281 -9.37,33.438 -11.82,11.821 0,0"
             style="fill:#ffffff;fill-opacity:1;fill-rule:nonzero;stroke:none"
             id="path4726" /></g><g
           id="g4728"
           transform="translate(108.8721,114.7119)"><path
             d="M 0,0 C 0,42.239 11.817,83.758 32.15,122.002 L -8.937,163.089 -82.932,89.093 c -24.587,-24.587 -24.587,-64.45 0,-89.037 l 65.243,-65.243 c 8.116,-8.117 18.29,-13.78 29.355,-16.437 C 4.085,-55.731 0,-28.345 0,0"
             style="fill:#5bd6fd;fill-opacity:1;fill-rule:nonzero;stroke:none"
             id="path4730" /></g><g
           id="g4732"
           transform="translate(232.127,409.9922)"><path
             d="m 0,0 -132.191,-132.191 193.621,-193.622 45.578,45.579"
             style="fill:none;stroke:#000000;stroke-width:15;stroke-linecap:round;stroke-linejoin:round;stroke-miterlimit:10;stroke-dasharray:none;stroke-opacity:1"
             id="path4734" /></g><g
           id="g4736"
           transform="translate(360.3486,150.9707)"><path
             d="m 0,0 125.711,125.711 c 24.587,24.587 24.587,64.451 0,89.038 L 21.127,319.332 c -24.587,24.588 -64.45,24.588 -89.037,0 l -39.099,-39.098"
             style="fill:none;stroke:#000000;stroke-width:15;stroke-linecap:round;stroke-linejoin:round;stroke-miterlimit:10;stroke-dasharray:none;stroke-opacity:1"
             id="path4738" /></g><g
           id="g4740"
           transform="translate(99.9355,277.8008)"><path
             d="m 0,0 -73.995,-73.996 c -24.587,-24.587 -24.587,-64.45 0,-89.037 l 65.242,-65.243 c 9.928,-9.928 22.933,-16.191 36.885,-17.764 l 71.946,-8.113 c 18.747,-2.115 37.436,4.424 50.776,17.764 l 42.767,42.767 z"
             style="fill:none;stroke:#000000;stroke-width:15;stroke-linecap:round;stroke-linejoin:round;stroke-miterlimit:10;stroke-dasharray:none;stroke-opacity:1"
             id="path4742" /></g><g
           id="g4744"
           transform="translate(243.6963,256.7031)"><path
             d="M 0,0 10.987,-10.988"
             style="fill:none;stroke:#000000;stroke-width:15;stroke-linecap:round;stroke-linejoin:round;stroke-miterlimit:10;stroke-dasharray:none;stroke-opacity:1"
             id="path4746" /></g><g
           id="g4748"
           transform="translate(358.0547,371.0605)"><path
             d="M 0,0 10.987,-10.987"
             style="fill:none;stroke:#000000;stroke-width:15;stroke-linecap:round;stroke-linejoin:round;stroke-miterlimit:10;stroke-dasharray:none;stroke-opacity:1"
             id="path4750" /></g><g
           id="g4752"
           transform="translate(296.4609,288.1465)"><path
             d="M 0,0 C 7.871,-0.54 15.926,2.19 21.942,8.207 27.96,14.225 30.69,22.278 30.15,30.15"
             style="fill:none;stroke:#000000;stroke-width:15;stroke-linecap:round;stroke-linejoin:round;stroke-miterlimit:10;stroke-dasharray:none;stroke-opacity:1"
             id="path4754" /></g></g></g></g></svg>
