<?xml version="1.0" standalone="no"?>
<svg xmlns="http://www.w3.org/2000/svg" version="1.1" xmlns:xlink="http://www.w3.org/1999/xlink" width="512" height="512" x="0" y="0" viewBox="0 0 512 512" style="enable-background:new 0 0 512 512" xml:space="preserve" class=""><g><path fill="#b8daff" d="M357.516 58.379v277.005c0 17.763-14.4 32.162-32.162 32.162H43.887c-17.763 0-32.162-14.4-32.162-32.162V58.379c0-17.763 14.4-32.162 32.162-32.162h281.467c17.762 0 32.162 14.4 32.162 32.162z" opacity="1" data-original="#b8daff" class=""/><path fill="#fefdfe" d="M401.951 101.862v277.005c0 17.763-14.4 32.162-32.162 32.162H88.322c-17.763 0-32.162-14.4-32.162-32.162V101.862c0-17.763 14.4-32.162 32.162-32.162h281.467c17.762 0 32.162 14.4 32.162 32.162z" opacity="1" data-original="#fefdfe" class=""/><path fill="#fefdfe" d="M370.346 114.721v217.142c0 8.197-6.645 14.842-14.842 14.842H102.606c-8.197 0-14.842-6.645-14.842-14.842V114.721c0-8.197 6.645-14.842 14.842-14.842h252.898c8.197 0 14.842 6.645 14.842 14.842z" opacity="1" data-original="#fefdfe" class=""/><path fill="#b8daff" d="m87.764 325.139 80.361-97.018a33.93 33.93 0 0 1 52.137-.146l58.488 69.814a5.202 5.202 0 0 0 7.265.699l28.313-22.974a22.493 22.493 0 0 1 31.911 3.638l24.108 30.929v21.782c-.556 9.829-6.631 13.523-14.842 14.842H102.606c-11.255-.441-15.447-8.438-14.842-21.566z" opacity="1" data-original="#b8daff" class=""/><circle cx="297.398" cy="170.091" r="25.098" fill="#b8daff" transform="rotate(-45 297.39 170.159)" opacity="1" data-original="#b8daff" class=""/><circle cx="401.951" cy="387.45" r="98.324" fill="#fefdfe" transform="rotate(-80.8 401.876 387.495)" opacity="1" data-original="#fefdfe" class=""/><path fill="#b8daff" d="M467.674 387.45c0 4.488-1.852 8.585-4.809 11.542a16.116 16.116 0 0 1-11.542 4.809h-33.022v33.022c0 9.013-7.338 16.351-16.351 16.351a16.116 16.116 0 0 1-11.542-4.809c-2.957-2.957-4.809-7.053-4.809-11.542v-33.022h-33.022c-9.012 0-16.351-7.338-16.351-16.351a16.34 16.34 0 0 1 4.809-11.577 16.23 16.23 0 0 1 11.542-4.774H385.6v-33.022c0-9.013 7.338-16.351 16.351-16.351 4.524 0 8.585 1.817 11.542 4.809 2.957 2.957 4.809 7.053 4.809 11.542V371.1h33.022c9.012 0 16.35 7.302 16.35 16.35z" opacity="1" data-original="#b8daff" class=""/><g fill="#3f8cf4"><path d="M43.9 373.285h6.527v5.572c0 20.899 17.002 37.901 37.901 37.901H283.06a5.724 5.724 0 0 0 5.725-5.725 5.724 5.724 0 0 0-5.725-5.725H88.328c-14.585 0-26.451-11.866-26.451-26.451V101.874c0-14.585 11.866-26.451 26.451-26.451h281.451c14.583 0 26.449 11.866 26.449 26.451v164.351a5.724 5.724 0 0 0 5.725 5.725 5.724 5.724 0 0 0 5.725-5.725V101.874c0-20.899-17.002-37.901-37.9-37.901h-6.528v-5.61c0-20.877-17.002-37.862-37.9-37.862H43.9C23.002 20.5 6 37.486 6 58.363v277.023c0 20.897 17.002 37.899 37.9 37.899zM17.45 58.363c0-14.563 11.866-26.412 26.449-26.412H325.35c14.583 0 26.449 11.849 26.449 26.412v5.61H88.328c-20.899 0-37.901 17.002-37.901 37.901v259.961H43.9c-14.583 0-26.449-11.866-26.449-26.449V58.363z" fill="#3f8cf4" opacity="1" data-original="#3f8cf4" class=""/><path d="M370.351 276.149a5.724 5.724 0 0 0 5.725-5.725V114.737c0-10.998-8.79-20.573-20.573-20.573h-252.9c-11.344 0-20.573 9.229-20.573 20.573v210.419c1.617 16.515 3.544 26.319 20.245 27.28.108.005.216.009.323.009H287.755a5.724 5.724 0 0 0 5.725-5.725 5.724 5.724 0 0 0-5.725-5.725l-184.824.009c-11.984-.687-8.978-12.528-9.451-13.786l79.066-95.433c11.395-13.76 32.268-13.445 43.338-.129l58.484 69.82c3.841 4.56 10.692 5.19 15.239 1.444l28.313-22.973c2.969-2.4 6.733-3.724 10.599-3.724 5.146 0 10.069 2.404 13.139 6.389l.345.457a5.726 5.726 0 0 0 9.139-6.899l-.38-.501c-5.256-6.823-13.571-10.895-22.243-10.895-6.478 0-12.8 2.227-17.805 6.277l-27.92 22.653-58.119-69.384c-15.533-18.685-44.884-19.229-60.948.16L93.48 309.27V114.737c0-5.03 4.093-9.123 9.123-9.123h252.9c5.089 0 9.123 4.133 9.123 9.123v155.687a5.724 5.724 0 0 0 5.725 5.725z" fill="#3f8cf4" opacity="1" data-original="#3f8cf4" class=""/><path d="M266.574 170.091c0 16.997 13.827 30.823 30.823 30.823 16.997 0 30.823-13.827 30.823-30.823s-13.827-30.823-30.823-30.823-30.823 13.827-30.823 30.823zm50.197 0c0 10.683-8.69 19.373-19.373 19.373s-19.373-8.69-19.373-19.373 8.69-19.373 19.373-19.373 19.373 8.691 19.373 19.373zM401.951 283.401c-57.373 0-104.05 46.677-104.05 104.05S344.578 491.5 401.951 491.5 506 444.824 506 387.451s-46.676-104.05-104.049-104.05zm0 196.648c-51.061 0-92.6-41.539-92.6-92.598 0-51.061 41.539-92.6 92.6-92.6 51.059 0 92.598 41.539 92.598 92.6.001 51.059-41.539 92.598-92.598 92.598z" fill="#3f8cf4" opacity="1" data-original="#3f8cf4" class=""/><path d="M451.324 365.374h-27.297v-27.297c0-29.22-44.152-29.18-44.152 0v27.297h-27.297c-29.215 0-29.197 44.152 0 44.152h27.297v27.297c0 29.232 44.152 29.183 44.152 0v-27.297h27.297c29.186 0 29.194-44.152 0-44.152zm0 32.702h-33.022a5.724 5.724 0 0 0-5.725 5.725v33.022c0 14.062-21.251 14.047-21.251 0v-33.022a5.724 5.724 0 0 0-5.725-5.725h-33.022c-14.059 0-14.051-21.251 0-21.251H385.6a5.724 5.724 0 0 0 5.725-5.725v-33.022c0-14.059 21.251-14.047 21.251 0V371.1a5.724 5.724 0 0 0 5.725 5.725h33.022c14.083-.001 14.003 21.251.001 21.251z" fill="#3f8cf4" opacity="1" data-original="#3f8cf4" class=""/></g></g></svg>